<!-- icon666.com - MILLIONS OF FREE VECTOR ICONS --><svg id="Capa_1" enable-background="new 0 0 512.002 512.002" viewBox="0 0 512.002 512.002" xmlns="http://www.w3.org/2000/svg"><g><path d="m383.501 7.5v180c49.706 0 90-40.294 90-90s-40.294-90-90-90z" fill="#ccc"></path><path d="m443.501 97.5c0-49.706-26.863-90-60-90-44.356 0-81.215 32.089-88.635 74.318l-31.365 15.682 31.365 15.682c7.421 42.229 44.28 74.318 88.635 74.318 33.137 0 60-40.294 60-90z" fill="#ebebeb"></path><path d="m436.001 82.5h-37.5v-37.5h-30v37.5h-37.5v30h37.5v37.5h30v-37.5h37.5z" fill="#80bf63"></path><path d="m188.501 412.5h30l15-120h-75z" fill="#b3b3b3"></path><path d="m188.501 412.5h-30l-15-120h45z" fill="#ccc"></path><path d="m173.501 247.5 15 90c24.853 0 45-20.147 45-45z" fill="#30b054"></path><path d="m143.501 292.5c0 24.853 20.147 45 45 45v-90z" fill="#80bf63"></path><path d="m218.501 172.5-30 15-30 45 30 60h45v-105z" fill="#80bf63"></path><path d="m158.501 172.5-15 15v105h45v-105z" fill="#aacf88"></path><path d="m148.501 172.5c-11.046 0-20 8.954-20 20v220h30v-240z" fill="#fff"></path><path d="m228.501 172.5h-10v240h30v-220c0-11.046-8.954-20-20-20z" fill="#ebebeb"></path><path d="m158.501 172.5 30 45 30-45z" fill="#ebebeb"></path><circle cx="68.501" cy="397.5" fill="#b3b3b3" r="15"></circle><path d="m188.501 52.5v90c24.853 0 45-20.147 45-45s-20.147-45-45-45z" fill="#85453d"></path><path d="m203.501 97.5c0-24.853-6.716-45-15-45-24.853 0-45 20.147-45 45s20.147 45 45 45c8.284 0 15-20.147 15-45z" fill="#a45e43"></path><path d="m383.501 0c-46.155 0-85.63 32.056-95.286 76.758l-28.068 14.034c-2.541 1.271-4.146 3.867-4.146 6.708s1.605 5.438 4.146 6.708l28.068 14.034c9.656 44.702 49.131 76.758 95.286 76.758 53.762 0 97.5-43.738 97.5-97.5s-43.738-97.5-97.5-97.5zm0 180c-40.143 0-74.313-28.646-81.249-68.115-.411-2.341-1.907-4.348-4.033-5.41l-17.948-8.975 17.948-8.974c2.125-1.062 3.622-3.069 4.033-5.41 6.936-39.469 41.106-68.116 81.249-68.116 45.491 0 82.5 37.01 82.5 82.5s-37.009 82.5-82.5 82.5z"></path><path d="m436.001 75h-30v-30c0-4.143-3.358-7.5-7.5-7.5h-30c-4.142 0-7.5 3.357-7.5 7.5v30h-30c-4.142 0-7.5 3.357-7.5 7.5v30c0 4.143 3.358 7.5 7.5 7.5h30v30c0 4.143 3.358 7.5 7.5 7.5h30c4.142 0 7.5-3.357 7.5-7.5v-30h30c4.142 0 7.5-3.357 7.5-7.5v-30c0-4.143-3.358-7.5-7.5-7.5zm-7.5 30h-30c-4.142 0-7.5 3.357-7.5 7.5v30h-15v-30c0-4.143-3.358-7.5-7.5-7.5h-30v-15h30c4.142 0 7.5-3.357 7.5-7.5v-30h15v30c0 4.143 3.358 7.5 7.5 7.5h30z"></path><path d="m188.501 150c28.949 0 52.5-23.552 52.5-52.5s-23.551-52.5-52.5-52.5-52.5 23.552-52.5 52.5 23.551 52.5 52.5 52.5zm0-90c20.678 0 37.5 16.822 37.5 37.5s-16.822 37.5-37.5 37.5-37.5-16.822-37.5-37.5 16.822-37.5 37.5-37.5z"></path><path d="m255.016 185.223c-3.199-11.642-13.871-20.223-26.515-20.223h-80c-12.563 0-23.178 8.472-26.452 20h-68.548c-12.407 0-22.5 10.094-22.5 22.5s10.093 22.5 22.5 22.5h15c4.142 0 7.5-3.357 7.5-7.5s-3.358-7.5-7.5-7.5h-15c-4.136 0-7.5-3.364-7.5-7.5s3.364-7.5 7.5-7.5h67.5v212.5c0 4.143 3.358 7.5 7.5 7.5h22.501v69.095l-24.872 8.29c-3.93 1.31-6.053 5.558-4.744 9.487 1.048 3.143 3.974 5.13 7.114 5.13.786 0 1.586-.125 2.373-.387l30-10c3.062-1.021 5.128-3.887 5.128-7.115v-74.5h44.999v74.5c0 3.229 2.066 6.095 5.128 7.115l30 10c.787.262 1.586.387 2.373.387 3.14 0 6.066-1.987 7.114-5.13 1.31-3.93-.814-8.178-4.744-9.487l-24.872-8.29v-69.095h22.5c4.142 0 7.5-3.357 7.5-7.5v-212.144c41.987 3.804 75 39.183 75 82.144 0 4.143 3.358 7.5 7.5 7.5s7.5-3.357 7.5-7.5c.001-51.572-40.248-93.913-90.983-97.277zm-44.015 99.777h-44.999v-87.728l16.259 24.388c1.391 2.087 3.732 3.34 6.24 3.34s4.85-1.253 6.24-3.34l16.26-24.39zm-22.5-81.021-15.986-23.979h31.973zm-22.499 96.021h44.999v22.489c-6.47 4.862-14.344 7.511-22.5 7.511s-16.029-2.649-22.499-7.51zm-30.001 105v-212.5c0-6.893 5.607-12.5 12.5-12.5h2.501v225zm30.001 0v-65.076c6.973 3.312 14.641 5.076 22.499 5.076s15.527-1.764 22.5-5.076v65.076zm59.999 0v-225h2.5c6.891 0 12.497 5.605 12.5 12.495v212.505z"></path><path d="m83.501 245c-4.142 0-7.5 3.357-7.5 7.5s3.358 7.5 7.5 7.5c4.136 0 7.5 3.364 7.5 7.5v25c0 12.406-10.093 22.5-22.5 22.5s-22.5-10.094-22.5-22.5v-25c0-4.136 3.364-7.5 7.5-7.5 4.142 0 7.5-3.357 7.5-7.5s-3.358-7.5-7.5-7.5c-12.407 0-22.5 10.094-22.5 22.5v25c0 18.11 12.904 33.261 30 36.745v47.045c-8.729 3.096-15 11.433-15 21.21 0 12.406 10.093 22.5 22.5 22.5s22.5-10.094 22.5-22.5c0-9.777-6.271-18.114-15-21.21v-47.045c17.096-3.484 30-18.635 30-36.745v-25c0-12.406-10.093-22.5-22.5-22.5zm-15 160c-4.136 0-7.5-3.364-7.5-7.5s3.364-7.5 7.5-7.5 7.5 3.364 7.5 7.5-3.364 7.5-7.5 7.5z"></path></g></svg>