<!-- icon666.com - MILLIONS OF FREE VECTOR ICONS --><svg xmlns="http://www.w3.org/2000/svg" viewBox="0 0 512 512"><g id="FILLED_OUTLINE" data-name="FILLED OUTLINE"><path d="M136,456H88v16a16,16,0,0,0,16,16h32a16,16,0,0,0,16-16h0A15.99993,15.99993,0,0,0,136,456Z" style="fill:#a7b2b1"></path><rect x="40" y="248" width="96" height="208" style="fill:#918784"></rect><rect x="104" y="248" width="32" height="208" style="fill:#776e6b"></rect><path d="M408,224H344a16,16,0,0,1-16-16V158.62738a16.0002,16.0002,0,0,0-4.68628-11.31366L296,120H272V256H408a16,16,0,0,0,16-16v-.00006A16,16,0,0,0,408,224Z" style="fill:#b8c2c2"></path><path d="M272,40v80h40a24,24,0,0,0,24-24V40Z" style="fill:#f5ddd5"></path><path d="M288,24a16,16,0,0,0-16,16V96a40,40,0,0,1,40-40h8a16,16,0,0,0,16-16V24Z" style="fill:#a59f99"></path><path d="M400,456V408a16,16,0,0,0-16-16H288a16,16,0,0,1-16-16V328H408a32,32,0,0,1,32,32v96" style="fill:#b8c2c2"></path><path d="M384,256V224h24a16,16,0,0,1,16,16v0a16,16,0,0,1-16,16Z" style="fill:#e8cbbf"></path><path d="M456,456H400v16a16,16,0,0,0,16,16h40a16,16,0,0,0,16-16h0A15.99993,15.99993,0,0,0,456,456Z" style="fill:#83695b"></path><path d="M88,456H40v16a16,16,0,0,0,16,16H88a16,16,0,0,0,16-16h0A15.99993,15.99993,0,0,0,88,456Z" style="fill:#b8c2c2"></path><path d="M216,152H128v32h88a16,16,0,0,0,0-32Z" style="fill:#e8cbbf"></path><path d="M359.63257,384H280V288.30469a105.34892,105.34892,0,0,0-12.7719-.1971C213.0596,290.54787,169.52833,334.886,168.04,389.089A104.10959,104.10959,0,0,0,274.911,495.96c54.203-1.48833,98.54111-45.0196,100.98139-99.1881A105.34892,105.34892,0,0,0,375.69531,384Zm-155.2273-48.28125L252.68652,384H184.36743A87.608,87.608,0,0,1,204.40527,335.71875ZM184.36743,400h68.31909l-48.28125,48.28125A87.608,87.608,0,0,1,184.36743,400ZM264,479.63257a87.608,87.608,0,0,1-48.28125-20.03784L264,411.31348Zm0-106.94605-48.28125-48.28125A87.608,87.608,0,0,1,264,304.36743Zm16,106.94605V411.31348l48.28125,48.28125A87.608,87.608,0,0,1,280,479.63257Zm59.59473-31.35132L291.31348,400h68.31909A87.608,87.608,0,0,1,339.59473,448.28125Z" style="fill:#655a56"></path><path d="M131.31372,147.31372,104,120H40V248h96V158.62738A16.0002,16.0002,0,0,0,131.31372,147.31372Z" style="fill:#c69079"></path><path d="M72,40v80h32a24,24,0,0,0,24-24V40Z" style="fill:#f5ddd5"></path><path d="M64,24A24,24,0,0,0,40,48V152H56a16,16,0,0,0,16-16V72A16,16,0,0,1,88,56h24a16,16,0,0,0,16-16V24Z" style="fill:#aa7f5f"></path><path d="M280,256V200a24.02687,24.02687,0,0,0-24-24H184v16h72a8.00917,8.00917,0,0,1,8,8V328h80V256Z" style="fill:#655a56"></path><path d="M184.00006,184H110.6274a16,16,0,0,1-11.31368-4.68628l0,0a16,16,0,0,0-22.6274,0L76,180a16.97055,16.97055,0,0,0,0,24l7.31373,7.31373A16,16,0,0,0,94.6274,216H184a16,16,0,0,0,16-16v-.00006A15.99994,15.99994,0,0,0,184.00006,184Z" style="fill:#f5ddd5"></path><path d="M456,448h-8V360a40.04521,40.04521,0,0,0-40-40H352V264h56a24,24,0,0,0,0-48H344a8.00917,8.00917,0,0,1-8-8V158.62744a23.843,23.843,0,0,0-7.02979-16.9707L315.15637,127.8429A32.043,32.043,0,0,0,344,96V16H288a24.0275,24.0275,0,0,0-24,24V177.37622A23.88388,23.88388,0,0,0,256,176H240v-8a24.02687,24.02687,0,0,0-24-24H139.02344a24.36382,24.36382,0,0,0-2.05323-2.34326l-17.59948-17.59949A32.02373,32.02373,0,0,0,136,96V16H64A32.036,32.036,0,0,0,32,48V472a24.0275,24.0275,0,0,0,24,24h80a23.99794,23.99794,0,0,0,8-46.6239V224h40a23.99151,23.99151,0,0,0,22.6239-32H256a8.00917,8.00917,0,0,1,8,8v88.30469A104.0018,104.0018,0,1,0,375.69531,400H384a8.00917,8.00917,0,0,1,8,8v64a24.02687,24.02687,0,0,0,24,24h40a24,24,0,0,0,0-48ZM120,96a16.01833,16.01833,0,0,1-16,16H80V72a8.00917,8.00917,0,0,1,8-8h24a23.8929,23.8929,0,0,0,8-1.37109ZM48,48A16.01833,16.01833,0,0,1,64,32h56v8a8.00917,8.00917,0,0,1-8,8H88A24.02687,24.02687,0,0,0,64,72v64a8.00917,8.00917,0,0,1-8,8H48ZM88,480H56a8.00917,8.00917,0,0,1-8-8v-8H88a8,8,0,0,1,0,16Zm8-32H48V256H96Zm40,32H110.62378a23.94021,23.94021,0,0,0,0-16H136a8,8,0,0,1,0,16Zm-24-32V256h16V448Zm72-240H94.62744a7.94834,7.94834,0,0,1-5.65723-2.34326L69.65674,186.34326,58.34326,197.65674l19.31348,19.31347A23.843,23.843,0,0,0,94.62744,224H128v16H48V160h8a24.02687,24.02687,0,0,0,24-24v-8h20.68652l24.97022,24.97021A7.94834,7.94834,0,0,1,128,158.62744V176H110.62744a7.94834,7.94834,0,0,1-5.65723-2.34326L93.65674,162.34326,82.34326,173.65674l11.31348,11.31347A23.843,23.843,0,0,0,110.62744,192H184a8,8,0,0,1,0,16Zm40-32H144V160h72a8.00917,8.00917,0,0,1,8,8ZM204.40527,335.71875,252.68652,384H184.36743A87.608,87.608,0,0,1,204.40527,335.71875ZM184.36743,400h68.31909l-48.28125,48.28125A87.608,87.608,0,0,1,184.36743,400ZM264,479.63257a87.608,87.608,0,0,1-48.28125-20.03784L264,411.31348Zm0-106.94605-48.28125-48.28125A87.608,87.608,0,0,1,264,304.36743ZM392,232h16a8,8,0,0,1,0,16H392ZM280,40a8.00917,8.00917,0,0,1,8-8h40v8a8.00917,8.00917,0,0,1-8,8h-8a47.81064,47.81064,0,0,0-32,12.252Zm0,56a32.036,32.036,0,0,1,32-32h8a23.8929,23.8929,0,0,0,8-1.37109V96a16.01833,16.01833,0,0,1-16,16H280Zm0,104V128h12.68652l24.97022,24.97021A7.94834,7.94834,0,0,1,320,158.62744V208a24.02687,24.02687,0,0,0,24,24h32v16H280Zm0,64h56v56H280Zm0,215.63257V411.31348l48.28125,48.28125A87.608,87.608,0,0,1,280,479.63257Zm59.59473-31.35132L291.31348,400h68.31909A87.608,87.608,0,0,1,339.59473,448.28125ZM384,384H288a8.00917,8.00917,0,0,1-8-8V336H408a24.0275,24.0275,0,0,1,24,24v88H408V408A24.0275,24.0275,0,0,0,384,384Zm72,96H416a8.00917,8.00917,0,0,1-8-8v-8h48a8,8,0,0,1,0,16Z"></path></g></svg>