<!-- icon666.com - MILLIONS OF FREE VECTOR ICONS --><svg viewBox="-46 0 512 512.00099" xmlns="http://www.w3.org/2000/svg"><path d="m322.5 172.53125h-30l-20 119.96875h65zm0 0" fill="#ffd9d4"></path><path d="m262.5 172.53125-15 119.96875h45v-119.96875zm0 0" fill="#fff"></path><path d="m322.5 262.5-30 93.5 30 63.5h30v-37zm0 0" fill="#353535"></path><path d="m247.5 262.5-15 120.03125v36.96875h90v-157zm0 0" fill="#4f4f4f"></path><path d="m300 202.5c0 4.140625-3.359375 7.5-7.5 7.5-4.144531 0-7.5-3.359375-7.5-7.5 0-4.144531 3.355469-7.5 7.5-7.5 4.140625 0 7.5 3.355469 7.5 7.5zm0 0"></path><path d="m300 232.5c0 4.140625-3.359375 7.5-7.5 7.5-4.144531 0-7.5-3.359375-7.5-7.5 0-4.144531 3.355469-7.5 7.5-7.5 4.140625 0 7.5 3.355469 7.5 7.5zm0 0"></path><path d="m332.492188 172.53125c11.046874 0 20 8.921875 20 19.96875l.007812 190c-16.570312 0-30-13.433594-30-30v-179.96875zm0 0" fill="#b3b3b3"></path><path d="m252.503906 172.53125c-11.042968 0-20 8.921875-20 19.96875l-.003906 190c16.570312 0 30-13.433594 30-30v-179.96875zm0 0" fill="#b3b3b3"></path><path d="m142.5 262.5v75c24.851562 0 45-20.148438 45-45zm0 0" fill="#ff6753"></path><path d="m157.5 292.5-15-30-45 30c0 24.851562 20.148438 45 45 45 8.285156 0 15-20.148438 15-45zm0 0" fill="#ff8d7e"></path><path d="m167.5 172.5h-30l20 120h30v-100c0-11.046875-8.953125-20-20-20zm0 0" fill="#ff8d7e"></path><path d="m137.5 172.5h-20c-11.046875 0-20 8.953125-20 20v100h60v-100c0-11.046875-8.953125-20-20-20zm0 0" fill="#ffb4a9"></path><path d="m77.5 157.5c11.046875 0 20-8.953125 20-20v-40c-22.089844 0-40 17.910156-40 40 0 11.046875 8.957031 20 20 20zm0 0" fill="#a45e43"></path><path d="m156.59375 82.046875-14.09375 60.453125c24.855469 0 45-20.148438 45-45zm0 0" fill="#ffb4a9"></path><path d="m157.5 97.5c0-5.429688-.320312-10.632812-.90625-15.453125l-41.097656-20.546875c-10.925782 8.210938-17.996094 21.277344-17.996094 36 0 24.851562 20.148438 45 45 45 8.285156 0 15-20.148438 15-45zm0 0" fill="#ffd9d0"></path><path d="m142.5 52.5 14.898438 39.832031c9.414062 3.339844 19.542968 5.167969 30.101562 5.167969 0-24.851562-20.144531-45-45-45zm0 0" fill="#85453d"></path><path d="m142.5 52.5c-10.132812 0-19.480469 3.351562-27.003906 9 10.535156 14.023438 25.066406 24.859375 41.902344 30.832031-.855469-22.417969-7.195313-39.832031-14.898438-39.832031zm0 0" fill="#a45e43"></path><path d="m315 30c0 12.425781-10.074219 22.5-22.5 22.5s-22.5-10.074219-22.5-22.5 10.074219-22.5 22.5-22.5 22.5 10.074219 22.5 22.5zm0 0" fill="#fff"></path><path d="m292.5 52.5v90c24.851562 0 45-20.148438 45-45zm0 0" fill="#ffd9d4"></path><path d="m292.5 52.5-45 45c0 24.851562 20.144531 45 45 45 8.285156 0 15-20.148438 15-45s-6.714844-45-15-45zm0 0" fill="#fff0d3"></path><path d="m292.5 52.5c-24.855469 0-45 20.148438-45 45 24.851562 0 45-20.148438 45-45zm0 0" fill="#fff"></path><path d="m337.5 97.5c0-24.851562-20.148438-45-45-45 0 24.851562 20.144531 45 45 45zm0 0" fill="#ebebeb"></path><path d="m77.5 165c15.164062 0 27.5-12.335938 27.5-27.5v-3.308594c9.539062 9.746094 22.820312 15.808594 37.5 15.808594 28.949219 0 52.5-23.550781 52.5-52.5s-23.550781-52.5-52.5-52.5c-26.582031 0-48.597656 19.863281-52.019531 45.523438-22.875 3.402343-40.480469 23.171874-40.480469 46.976562 0 15.164062 12.339844 27.5 27.5 27.5zm101.652344-75.421875c-20.15625-2-38.582032-11.210937-52.296875-26.144531 4.765625-2.199219 10.0625-3.433594 15.644531-3.433594 17.960938 0 33.003906 12.695312 36.652344 29.578125zm-64.453125-17.21875c16.695312 18.804687 39.578125 30.246094 64.609375 32.300781-3.351563 17.261719-18.578125 30.339844-36.808594 30.339844-20.675781 0-37.496094-16.824219-37.496094-37.5-.003906-9.664062 3.671875-18.484375 9.695313-25.140625zm-24.699219 33.515625v31.625c0 6.890625-5.605469 12.5-12.5 12.5-6.890625 0-12.5-5.609375-12.5-12.5 0-15.339844 10.683594-28.234375 25-31.625zm0 0"></path><path d="m204.871094 497.382812-24.871094-8.289062v-159.902344c9.269531-9.472656 15-22.421875 15-36.691406v-100c0-15.164062-12.335938-27.5-27.5-27.5h-50c-12.464844 0-23.011719 8.339844-26.375 19.726562-42.519531-3.265624-76.125-38.882812-76.125-82.226562 0-4.140625-3.359375-7.5-7.5-7.5s-7.5 3.359375-7.5 7.5c0 51.238281 39.730469 93.371094 90 97.214844v92.785156c0 14.269531 5.730469 27.21875 15 36.691406v159.902344l-24.871094 8.289062c-3.929687 1.308594-6.054687 5.558594-4.746094 9.488282 1.050782 3.140625 3.976563 5.128906 7.117188 5.128906.785156 0 1.585938-.125 2.371094-.386719l30-10c3.0625-1.019531 5.128906-3.886719 5.128906-7.113281v-154.578125c6.824219 3.25 14.449219 5.078125 22.5 5.078125 8.046875 0 15.675781-1.828125 22.5-5.078125v154.578125c0 3.226562 2.066406 6.09375 5.125 7.113281l30 10c.789062.261719 1.585938.386719 2.375.386719 3.140625 0 6.066406-1.988281 7.113281-5.128906 1.3125-3.929688-.8125-8.179688-4.742187-9.488282zm-87.371094-317.382812h17.5v22.5c0 4.140625 3.359375 7.5 7.5 7.5s7.5-3.359375 7.5-7.5v-22.5h17.5c6.894531 0 12.5 5.605469 12.5 12.5v92.5h-75v-92.5c0-6.894531 5.605469-12.5 12.5-12.5zm-11.746094 120h73.492188c-3.484375 17.09375-18.636719 30-36.746094 30s-33.261719-12.90625-36.746094-30zm0 0"></path><path d="m292.5 150c28.949219 0 52.5-23.550781 52.5-52.5 0-20.964844-12.355469-39.089844-30.164062-47.5 4.761718-5.3125 7.664062-12.320312 7.664062-20 0-16.542969-13.457031-30-30-30s-30 13.457031-30 30c0 7.679688 2.902344 14.6875 7.664062 20-17.808593 8.410156-30.164062 26.535156-30.164062 47.5 0 28.949219 23.550781 52.5 52.5 52.5zm0-15c-18.332031 0-33.625-13.226562-36.859375-30.636719 15.628906-2.445312 29-11.804687 36.859375-24.84375 7.859375 13.039063 21.226562 22.398438 36.859375 24.84375-3.234375 17.410157-18.527344 30.636719-36.859375 30.636719zm36.519531-45.980469c-13.878906-3.21875-24.820312-14.164062-28.042969-28.042969 13.878907 3.222657 24.824219 14.164063 28.042969 28.042969zm-51.519531-59.019531c0-8.269531 6.726562-15 15-15 8.269531 0 15 6.730469 15 15s-6.730469 15-15 15c-8.273438 0-15-6.730469-15-15zm6.519531 30.980469c-3.21875 13.878906-14.164062 24.820312-28.042969 28.042969 3.222657-13.882813 14.164063-24.824219 28.042969-28.042969zm0 0"></path><path d="m404.4375 286.097656c-3.0625-17.621094-18.453125-31.066406-36.9375-31.066406h-7.5v-62.53125c0-15.148438-12.335938-27.46875-27.5-27.46875h-79.996094c-15.164062 0-27.5 12.335938-27.5 27.5l-.003906 189.945312v37.023438c0 1.988281.789062 3.894531 2.195312 5.300781 1.40625 1.410157 3.316407 2.199219 5.304688 2.199219h22.5v62.09375l-24.871094 8.289062c-3.929687 1.3125-6.054687 5.558594-4.746094 9.488282 1.046876 3.144531 3.976563 5.128906 7.113282 5.128906.789062 0 1.585937-.125 2.375-.386719l30-10c3.0625-1.019531 5.128906-3.886719 5.128906-7.113281v-67.5h45v67.5c0 3.226562 2.0625 6.09375 5.125 7.113281l30 10c.789062.261719 1.585938.386719 2.375.386719 3.140625 0 6.066406-1.988281 7.113281-5.128906 1.308594-3.929688-.8125-8.179688-4.746093-9.488282l-24.871094-8.289062v-62.09375h22.5c4.144531 0 7.5-3.359375 7.5-7.5v-149.46875h7.5c10.351562 0 19.089844 7.027344 21.699218 16.5625-8.308593 3.308594-14.199218 11.429688-14.199218 20.90625 0 4.140625 3.359375 7.5 7.5 7.5 4.144531 0 7.5-3.359375 7.5-7.5 0-4.035156 3.203125-7.324219 7.195312-7.484375.105469.003906.203125.011719.304688.011719.105468 0 .203125-.007813.304687-.011719 3.996094.160156 7.195313 3.449219 7.195313 7.484375v196.996094c0 4.144531 3.359375 7.5 7.5 7.5 4.144531 0 7.5-3.355469 7.5-7.5v-196.996094c.003906-9.988281-6.539063-18.472656-15.558594-21.402344zm-59.4375-93.597656v181.207031c-8.730469-3.09375-15-11.429687-15-21.207031v-172.46875h2.5c6.890625 0 12.5 5.59375 12.5 12.46875zm-75-12.46875h45v75h-45zm-17.496094 0h2.496094v172.46875c0 9.777344-6.269531 18.113281-15 21.207031l.003906-181.175781c0-6.894531 5.609375-12.5 12.5-12.5zm-12.503906 231.96875v-22.757812c17.097656-3.484376 30-18.632813 30-36.742188v-82.46875h45v82.46875c0 18.109375 12.902344 33.257812 30 36.742188v22.757812zm0 0"></path></svg>