<!-- icon666.com - MILLIONS OF FREE VECTOR ICONS --><svg id="Capa_1" enable-background="new 0 0 512 512" viewBox="0 0 512 512" xmlns="http://www.w3.org/2000/svg"><g><g><g><g><path d="m315.869 141.212v-41.981h112.476c13.495 0 24.435 10.94 24.435 24.435v62.242h-72.392c-9.801-26.11-34.985-44.696-64.519-44.696z" fill="#62dbfb"></path><path d="m428.344 99.231h-23.592c13.495 0 24.435 10.94 24.435 24.435v62.242h23.592v-62.242c.001-13.495-10.939-24.435-24.435-24.435z" fill="#01c0fa"></path><ellipse cx="452.78" cy="254.819" fill="#3692bc" rx="24.2" ry="24.2" transform="matrix(.288 -.958 .958 .288 78.509 615.185)"></ellipse><circle cx="315.869" cy="210.115" fill="#fe93bb" r="20.636"></circle></g><path d="m181.452 68.738h-78.315c-52.286 0-84.465 60.301-65.65 226.394.572 5.051 4.854 8.872 9.937 8.872h189.741c5.083 0 9.365-3.822 9.937-8.872 18.814-166.093-13.364-226.394-65.65-226.394z" fill="#ae6c6c"></path><path d="m181.452 68.738h-25.643c52.286 0 84.465 60.301 65.65 226.394-.572 5.051-4.854 8.872-9.937 8.872h25.643c5.083 0 9.365-3.822 9.937-8.872 18.814-166.093-13.364-226.394-65.65-226.394z" fill="#9b5e5e"></path><path d="m7.5 489.783v-57.414c0-59.491 48.227-107.718 107.718-107.718h56.272c59.491 0 107.718 48.227 107.718 107.718v57.414c0 4.577-3.711 8.288-8.288 8.288h-255.132c-4.577.001-8.288-3.71-8.288-8.288z" fill="#00f2a6"></path><path d="m202.752 329.265c29.362 20.839 48.761 56.786 48.761 97.646v62.184c0 4.958-3.711 8.977-8.288 8.977h27.695c4.578 0 8.288-3.711 8.288-8.288v-57.414c0-48.619-32.212-89.707-76.456-103.105z" fill="#0ed290"></path><path d="m50.583 448.166h-43.083v41.618c0 4.577 3.711 8.288 8.288 8.288h34.795z" fill="#d8ecfe"></path><path d="m279.208 448.166h-43.083v49.906h34.795c4.577 0 8.288-3.711 8.288-8.288z" fill="#d8ecfe"></path><path d="m279.208 489.783v-41.618h-27.695v40.929c0 4.958-3.711 8.977-8.288 8.977h27.695c4.577.001 8.288-3.71 8.288-8.288z" fill="#b3dafe"></path><path d="m174.161 324.684v-62.995h-61.615v62.995c-6.312.154-12.488.855-18.485 2.049l49.293 73.916 49.293-73.916c-5.998-1.194-12.174-1.894-18.486-2.049z" fill="#ffb09e"></path><path d="m259.189 212.136c.42 12.047-9.211 21.962-21.174 21.962h-15.356c-3.361 0-6.26 2.321-6.995 5.609-3.729 16.532-12.972 30.974-25.701 41.278-12.74 10.303-28.947 16.49-46.613 16.49-35.301 0-64.857-24.714-72.293-57.768-.735-3.287-3.634-5.609-6.995-5.609h-15.367c-11.953 0-21.605-9.915-21.174-21.962.42-11.48 10.199-20.408 21.678-20.408h20.03v-34.129c0-8.397 6.807-15.204 15.204-15.204h.118c3.454 0 6.782 1.204 9.501 3.334 31.408 24.608 63.46 25.337 102.783 25.344 11.357.002 20.657 9.298 20.657 20.655h20.019c11.49 0 21.268 8.928 21.678 20.408z" fill="#ffcebf"></path><path d="m79.615 46.773v57.037c0 8.474 8.908 13.933 16.496 10.16 29.716-14.778 64.771-14.778 94.487 0 7.588 3.774 16.496-1.685 16.496-10.16v-57.037c0-3.127-1.524-6.076-4.111-7.833-35.968-24.437-83.289-24.437-119.257 0-2.587 1.757-4.111 4.707-4.111 7.833z" fill="#d8ecfe"></path></g></g><g><path d="m509.807 180.608c-2.928-2.932-7.677-2.933-10.606-.007l-21.486 21.46c-.358.357-.834.555-1.34.555h-16.095v-78.949c0-17.609-14.326-31.936-31.935-31.936h-104.977v-52.905c0-17.864-14.533-32.397-32.397-32.397h-15.49c-4.143 0-7.5 3.357-7.5 7.5s3.357 7.5 7.5 7.5h15.49c9.593 0 17.397 7.805 17.397 17.397 0 2.85.001 84.265.001 95.259-20.135 1.948-38.304 11.671-50.984 26.787-5.552-46.054-19.892-76.418-42.791-90.583v-23.515c0-5.643-2.765-10.891-7.396-14.038-18.896-12.838-40.972-19.623-63.843-19.623s-44.948 6.785-63.845 19.623c-4.631 3.147-7.395 8.396-7.395 14.037v22.258c-13.031 7.33-23.517 19.744-31.198 37.011-1.684 3.784.02 8.217 3.805 9.9 3.768 1.676 8.209-.003 9.9-3.805 4.73-10.633 10.591-18.946 17.493-24.866v16.539c0 14.048 14.767 23.125 27.336 16.875 27.489-13.673 60.315-13.675 87.807 0 5.976 2.971 12.858 2.597 18.417-.848 5.585-3.46 8.919-9.451 8.919-16.027v-14.606c6.966 6.697 12.796 15.996 17.399 27.817 6.763 17.365 10.923 40.203 12.405 68.004-2.208-.518-4.513-.797-6.887-.797h-13.534c-3.291-11.894-14.213-20.652-27.141-20.654-42.228-.009-69.906-1.611-98.16-23.749-4.058-3.179-9.074-4.93-14.126-4.93h-.118c-12.519 0-22.703 10.185-22.703 22.704v26.629h-12.53c-3.159 0-6.195.493-9.041 1.394.778-15.068 2.34-28.748 4.667-40.799.785-4.066-1.875-8-5.942-8.786-4.068-.783-8 1.876-8.786 5.942-3.086 15.983-4.891 34.562-5.379 55.245-2.795 4.222-4.493 9.227-4.691 14.645-.221 6.178 1.5 12.094 4.893 17.091.683 20.473 2.398 42.99 5.119 67.011.998 8.854 8.472 15.53 17.383 15.53h57.63v6.107c-27.403 2.386-52.828 14.378-72.236 34.234-21.163 21.648-32.816 50.248-32.816 80.528v57.411c0 8.706 7.083 15.79 15.789 15.79h255.131c8.706 0 15.79-7.083 15.79-15.79v-57.411c0-15.626-3.078-30.785-9.148-45.056-1.621-3.813-6.026-5.588-9.837-3.966-3.812 1.621-5.587 6.025-3.966 9.837 5.276 12.403 7.951 25.587 7.951 39.185v8.295h-28.085v-12.23c0-4.143-3.357-7.5-7.5-7.5s-7.5 3.357-7.5 7.5v62.136h-170.542v-62.136c0-4.143-3.357-7.5-7.5-7.5s-7.5 3.357-7.5 7.5v12.23h-28.083v-8.295c0-26.338 10.136-51.214 28.541-70.044 13.106-13.409 29.366-22.695 47.135-27.15l46.433 69.636c1.392 2.086 3.732 3.339 6.24 3.339 2.507 0 4.849-1.253 6.239-3.339l46.456-69.655c19.005 4.739 36.181 14.984 49.718 29.919 2.786 3.074 7.529 3.299 10.594.521 3.069-2.782 3.303-7.525.521-10.594-18.976-20.937-45.82-34.771-75.218-37.388v-6.115h55.5c8.917 0 16.395-6.677 17.392-15.526 1.407-12.43 2.543-24.43 3.41-35.934 14.227 16.564 35.131 26.48 57.908 26.48 41.97 0 76.399-34.177 76.399-76.409 0-5.738-.656-11.323-1.862-16.703h54.871v30.616c-13.87 3.379-24.199 15.9-24.199 30.796 0 17.479 14.221 31.7 31.699 31.7 17.479 0 31.7-14.221 31.7-31.7 0-14.896-10.33-27.417-24.2-30.796v-6.408h16.095c4.508 0 8.747-1.754 11.938-4.94l21.487-21.461c2.933-2.928 2.936-7.677.01-10.607zm-312.032-73.521c-.559.346-2.052 1.057-3.838.167-15.839-7.877-33.208-11.813-50.583-11.813-17.371 0-34.748 3.938-50.583 11.813-1.785.89-3.279.179-3.838-.167-.679-.421-1.818-1.406-1.818-3.276v-57.037c0-.659.316-1.285.825-1.63 16.399-11.143 35.562-17.031 55.414-17.031s39.014 5.889 55.413 17.03c.51.347.826.972.826 1.631v57.037c.001 1.87-1.139 2.855-1.818 3.276zm73.933 348.578v34.116c0 .436-.353.789-.789.789h-27.295v-34.905zm-228.625 0v34.905h-27.294c-.436 0-.789-.354-.789-.789v-34.116zm272.786-232.414c-7.243 0-13.137-5.893-13.137-13.136s5.894-13.136 13.137-13.136 13.136 5.893 13.136 13.136-5.893 13.136-13.136 13.136zm-56.297 8.581c4.853-5.515 7.373-12.552 7.111-19.96-.238-6.73-2.794-12.828-6.899-17.572-.082-2.736-.186-5.436-.315-8.089l29.162 16.841c-.586 2.258-.899 4.625-.899 7.064s.313 4.806.899 7.063l-29.144 16.832c.03-.73.058-1.455.085-2.179zm83.533-28.785 29.288-16.91c3.137 7.37 4.876 15.472 4.876 23.973 0 8.505-1.74 16.61-4.878 23.981l-29.286-16.91c.587-2.259.9-4.627.9-7.067 0-2.439-.313-4.807-.9-7.067zm21.623-30.066c.046.061.092.122.138.182l-29.28 16.905c-3.361-3.306-7.547-5.772-12.216-7.066v-33.817c.079.01.158.02.238.03 16.346 2.104 31.248 10.808 41.12 23.766zm-56.359-23.813v33.834c-4.671 1.294-8.857 3.761-12.219 7.068l-29.348-16.949c9.937-13.235 24.856-21.933 41.567-23.953zm-239.14 50.06c4.143 0 7.5-3.357 7.5-7.5v-34.129c0-4.248 3.456-7.704 7.703-7.704h.118c1.714 0 3.445.617 4.875 1.737 34.366 26.927 69.846 26.934 107.408 26.941 7.255.001 13.158 5.902 13.158 13.154 0 4.143 3.357 7.5 7.5 7.5h20.02c7.56 0 13.921 5.907 14.183 13.17.276 7.943-6.102 14.201-13.679 14.201h-15.355c-6.92 0-12.806 4.718-14.312 11.458-3.273 14.514-11.479 27.688-23.101 37.096-4.32 3.494-8.968 6.384-13.863 8.665-.284.113-.561.239-.826.384-8.465 3.802-17.657 5.773-27.209 5.773-15.206 0-30.078-5.262-41.876-14.817-11.635-9.422-19.839-22.596-23.099-37.087-1.511-6.755-7.396-11.472-14.314-11.472h-15.366c-7.802 0-13.954-6.487-13.679-14.188.266-7.269 6.628-13.183 14.183-13.183h20.031zm-21.809 97.272c-1.27 0-2.335-.95-2.478-2.215-2.157-19.039-3.668-37.092-4.528-53.896 2.649.793 5.429 1.209 8.28 1.209h15.1c4.037 17.683 14.059 33.731 28.239 45.216 4.064 3.291 8.433 6.15 13.017 8.583v1.102h-57.63zm95.931 90.633-36.428-54.631c1.926-.157 3.862-.267 5.809-.313 4.076-.1 7.318-3.479 7.318-7.498v-23.138c7.522 2.244 15.372 3.422 23.3 3.422s15.783-1.18 23.311-3.427v23.143c0 4.025 3.242 7.398 7.318 7.498 1.948.047 3.885.155 5.81.311zm93.809-90.633h-55.5v-1.107c4.584-2.433 8.955-5.29 13.021-8.579 14.167-11.468 24.188-27.512 28.244-45.216h15.089c2.091 0 4.143-.228 6.134-.658-.861 16.575-2.362 34.446-4.502 53.35-.141 1.26-1.21 2.21-2.486 2.21zm29.643-49.392 29.346-16.948c3.362 3.308 7.549 5.775 12.22 7.068v33.834c-16.71-2.019-31.631-10.719-41.566-23.954zm56.567 23.937v-33.817c4.67-1.294 8.855-3.76 12.216-7.066l29.282 16.907c-9.793 12.954-24.596 21.907-41.498 23.976zm-.001-136.962v-27.353h104.976c9.338 0 16.935 7.598 16.935 16.936v54.741h-59.893c-11.302-24.698-35.054-41.68-62.018-44.324zm146.11 120.736c0 9.209-7.491 16.7-16.7 16.7-9.208 0-16.699-7.491-16.699-16.7s7.491-16.7 16.699-16.7c9.209 0 16.7 7.491 16.7 16.7z"></path><path d="m112.534 207.95c4.143 0 7.5-3.357 7.5-7.5v-4.193c0-4.143-3.357-7.5-7.5-7.5s-7.5 3.357-7.5 7.5v4.193c0 4.143 3.358 7.5 7.5 7.5z"></path><path d="m174.182 207.95c4.143 0 7.5-3.357 7.5-7.5v-4.193c0-4.143-3.357-7.5-7.5-7.5s-7.5 3.357-7.5 7.5v4.193c0 4.143 3.357 7.5 7.5 7.5z"></path><path d="m122.805 251.195c6.722 3.787 13.636 5.68 20.55 5.68 6.913 0 13.827-1.893 20.549-5.68 3.609-2.032 4.887-6.606 2.854-10.215-2.032-3.608-6.606-4.888-10.215-2.854-9 5.067-17.38 5.065-26.376 0-3.606-2.034-8.182-.755-10.215 2.854s-.757 8.183 2.853 10.215z"></path><path d="m156.154 55.033h-5.3v-5.301c0-4.143-3.357-7.5-7.5-7.5s-7.5 3.357-7.5 7.5v5.301h-5.3c-4.143 0-7.5 3.357-7.5 7.5s3.357 7.5 7.5 7.5h5.3v5.3c0 4.143 3.357 7.5 7.5 7.5s7.5-3.357 7.5-7.5v-5.3h5.3c4.143 0 7.5-3.357 7.5-7.5s-3.357-7.5-7.5-7.5z"></path></g></g></svg>