<!-- icon666.com - MILLIONS OF FREE VECTOR ICONS --><svg id="Layer_1" viewBox="0 0 256 256" xmlns="http://www.w3.org/2000/svg"><g><path d="m183.64 87.244-16.605 4.499-21.214-18.671c-2.393-2.134-6.053-1.937-8.192.448-1.679 1.873-1.911 4.535-.782 6.626.308.57.718 1.106 1.23 1.565l23.273 20.506c1.297 1.161 3.048 1.678 4.768 1.408l19.324-4.926z" fill="#eb6e7a"></path><path d="m165.207 105.197c-1.782 0-3.507-.651-4.858-1.861l-23.263-20.498c-.635-.569-1.155-1.232-1.559-1.979-1.46-2.702-1.064-6.054.984-8.34 2.682-2.989 7.305-3.243 10.307-.566l20.602 18.132 15.826-4.288c.804-.216 1.624.256 1.841 1.056.216.799-.257 1.623-1.056 1.84l-16.604 4.499c-.486.131-1.005.011-1.384-.322l-21.215-18.671c-1.776-1.584-4.503-1.438-6.084.323-1.205 1.346-1.439 3.32-.578 4.912.239.442.546.833.912 1.162l23.262 20.497c.959.858 2.222 1.24 3.479 1.061l19.25-4.908c.804-.205 1.619.281 1.823 1.083.205.803-.279 1.62-1.083 1.824l-19.323 4.927c-.045.012-.091.021-.138.028-.379.06-.762.089-1.141.089z" fill="#3a312a"></path><path d="m138.073 81.713c-.511-.461-.918-.994-1.228-1.567-1.13-2.092-.889-4.753.786-6.621 2.136-2.393 5.802-2.585 8.189-.456l3.86 3.393-7.686 8.707z" fill="#f1ddc2"></path><path d="m141.992 86.669c-.352 0-.706-.124-.991-.375l-3.921-3.456c-.004-.004-.008-.008-.012-.011-.618-.557-1.137-1.218-1.542-1.966-1.459-2.701-1.063-6.051.986-8.337 2.676-2.998 7.3-3.255 10.305-.575l3.852 3.387c.3.263.482.634.507 1.032.025.397-.109.789-.372 1.087l-7.686 8.707c-.297.335-.71.507-1.126.507zm-2.921-6.076 2.789 2.459 5.699-6.456-2.73-2.401c-1.782-1.588-4.506-1.436-6.08.329-1.209 1.349-1.442 3.321-.585 4.91.24.442.546.833.907 1.159z" fill="#3a312a"></path><path d="m109.033 48.166 33.593 17.675-2.503-8.871-31.661-12.572c-1.128 1.128-.841 3.025.571 3.768z" fill="#fae6ca"></path><path d="m142.626 67.341c-.239 0-.479-.057-.698-.172l-33.594-17.675c-1.099-.578-1.836-1.613-2.022-2.841-.187-1.228.211-2.436 1.088-3.314.424-.424 1.06-.554 1.615-.334l31.661 12.572c.434.172.763.537.89.986l2.504 8.871c.163.577-.033 1.196-.499 1.573-.274.221-.608.334-.945.334zm-32.896-20.503 30.503 16.049-1.354-4.796-29.566-11.74c.053.159.168.356.417.487z" fill="#3a312a"></path><path d="m116.229 36.63 12.572 31.661 8.871 2.503-17.675-33.593c-.742-1.411-2.64-1.699-3.768-.571z" fill="#fae6ca"></path><path d="m137.672 72.294c-.136 0-.273-.019-.407-.056l-8.87-2.503c-.45-.127-.814-.456-.987-.89l-12.572-31.661c-.221-.557-.09-1.191.334-1.614.879-.879 2.088-1.275 3.314-1.089 1.228.186 2.264.923 2.841 2.022l17.675 33.593c.279.53.216 1.176-.161 1.642-.291.358-.722.556-1.167.556zm-7.749-5.245 4.796 1.354-16.049-30.504c-.132-.25-.329-.364-.488-.417z" fill="#3a312a"></path><path clip-rule="evenodd" d="m132.382 67.734c-4.485-.404-8.245 3.273-7.941 7.766.239 3.535 3.068 6.428 6.597 6.746 4.486.404 8.246-3.273 7.942-7.767-.24-3.534-3.069-6.427-6.598-6.745zm-1.033 4.33c1.936-.222 3.544 1.421 3.279 3.352-.181 1.315-1.256 2.367-2.575 2.519-1.936.222-3.544-1.422-3.279-3.352.18-1.315 1.256-2.367 2.575-2.519z" fill="#ea6d7a" fill-rule="evenodd"></path><path d="m131.702 83.776c-.266 0-.531-.012-.799-.036-4.25-.383-7.672-3.882-7.959-8.139-.174-2.58.782-5.092 2.623-6.893 1.841-1.8 4.372-2.701 6.949-2.468 4.249.382 7.671 3.881 7.959 8.138.175 2.581-.781 5.093-2.623 6.894-1.649 1.614-3.856 2.504-6.15 2.504zm.018-14.571c-1.514 0-2.968.586-4.055 1.649-1.213 1.186-1.842 2.842-1.728 4.545.189 2.8 2.439 5.102 5.235 5.353 1.695.155 3.37-.439 4.583-1.625s1.842-2.843 1.727-4.547c-.189-2.8-2.439-5.101-5.235-5.352-.176-.016-.352-.023-.527-.023zm-.021 10.251c-1.199 0-2.337-.474-3.185-1.341-.97-.992-1.417-2.354-1.228-3.736.276-2.008 1.876-3.573 3.891-3.804 1.389-.157 2.739.319 3.708 1.311.971.992 1.417 2.353 1.228 3.736-.274 2.008-1.874 3.573-3.89 3.804-.175.019-.35.03-.524.03zm-.004-5.912c-.059 0-.117.003-.176.01-.643.074-1.172.592-1.26 1.232-.063.458.082.906.399 1.23.316.324.757.481 1.223.427.642-.074 1.172-.592 1.259-1.231.064-.459-.082-.907-.399-1.231-.276-.282-.65-.437-1.046-.437zm-.346-1.48h.01z" fill="#3a312a"></path><path clip-rule="evenodd" d="m126.962 53.299c.506.506.506 1.326 0 1.831-.506.506-1.326.506-1.831 0-.506-.506-.506-1.326 0-1.831s1.325-.505 1.831 0z" fill="#3b322a" fill-rule="evenodd"></path><path clip-rule="evenodd" d="m147.494 52.623c-4.485-.404-8.245 3.273-7.941 7.766.239 3.535 3.068 6.428 6.597 6.746 4.486.404 8.246-3.273 7.942-7.767-.241-3.535-3.07-6.428-6.598-6.745zm-1.034 4.33c1.936-.222 3.544 1.421 3.279 3.352-.18 1.315-1.256 2.367-2.575 2.519-1.936.222-3.544-1.421-3.279-3.352.181-1.316 1.256-2.368 2.575-2.519z" fill="#ea6d7a" fill-rule="evenodd"></path><path d="m146.814 68.665c-.266 0-.531-.012-.799-.036-4.25-.384-7.672-3.883-7.959-8.139-.174-2.58.782-5.092 2.623-6.893 1.841-1.8 4.367-2.701 6.949-2.469 4.249.383 7.671 3.881 7.959 8.138.176 2.581-.78 5.093-2.621 6.894-1.651 1.614-3.858 2.505-6.152 2.505zm.018-14.572c-1.515 0-2.969.586-4.056 1.649-1.213 1.186-1.842 2.842-1.728 4.545.189 2.8 2.439 5.101 5.235 5.353 1.695.155 3.371-.439 4.584-1.625 1.212-1.186 1.842-2.843 1.727-4.546-.19-2.8-2.44-5.101-5.236-5.353-.175-.015-.351-.023-.526-.023zm-.021 10.251c-1.198 0-2.336-.474-3.184-1.339-.97-.992-1.418-2.354-1.229-3.737.276-2.009 1.876-3.574 3.891-3.805 1.397-.158 2.739.319 3.708 1.31.971.992 1.418 2.353 1.229 3.735-.276 2.01-1.876 3.575-3.891 3.806-.176.02-.351.03-.524.03zm-.18-5.901c-.643.074-1.172.592-1.26 1.232-.063.458.083.906.4 1.231.317.323.755.481 1.222.427.643-.074 1.172-.592 1.26-1.233.063-.457-.083-.906-.4-1.23-.318-.324-.767-.481-1.222-.427z" fill="#3a312a"></path><circle cx="208" cy="30.084" fill="#87796f" r="13.5"></circle><path d="m208 45.084c-8.271 0-15-6.729-15-15s6.729-15 15-15 15 6.729 15 15-6.729 15-15 15zm0-27c-6.617 0-12 5.383-12 12s5.383 12 12 12 12-5.383 12-12-5.383-12-12-12z" fill="#3a312a"></path><path d="m231.947 200.81 3.038 6.605c1.209 2.855 5.666 11.864 4.235 14.626l-7.126 13.762c-1.618 3.124-5.46 4.345-8.584 2.727-3.114-1.612-4.335-5.455-2.717-8.579l5.992-11.572c-.449-.806-.902-1.677-1.334-2.64l-4.952-9.061z" fill="#87796f"></path><path d="m226.431 240.748c-1.243 0-2.476-.298-3.61-.886-3.848-1.992-5.354-6.747-3.359-10.6l5.626-10.865c-.363-.683-.686-1.339-.979-1.989l-4.924-9.01c-.194-.355-.236-.773-.117-1.16s.389-.709.749-.894l11.446-5.869c.363-.186.79-.216 1.175-.083.387.133.701.419.872.791l3.039 6.605c.183.429.407.93.669 1.515 2.581 5.771 4.98 11.638 3.535 14.428l-7.126 13.762c-.967 1.867-2.602 3.245-4.604 3.881-.787.25-1.592.374-2.392.374zm-3.876-33.437 4.213 7.709c.019.034.036.069.052.105.364.81.781 1.635 1.276 2.523.245.44.253.973.021 1.42l-5.992 11.572c-1.234 2.384-.304 5.325 2.074 6.557 1.156.599 2.474.711 3.714.317 1.239-.394 2.251-1.247 2.849-2.401l7.126-13.763c.598-1.154-.617-5.132-3.61-11.823-.27-.606-.504-1.127-.673-1.528l-2.366-5.141z" fill="#3a312a"></path><path d="m231.958 200.806-11.456 5.88-38.315-70.118c-3.571-6.535 1.676-14.39 9.081-13.592 3.23.348 6.038 2.369 7.394 5.321z" fill="#eb6e7a"></path><path d="m220.503 208.186c-.531 0-1.045-.284-1.317-.781l-38.315-70.118c-1.95-3.568-1.766-7.717.493-11.099 2.259-3.381 6.022-5.142 10.064-4.704 3.735.402 7.029 2.772 8.597 6.187l33.297 72.509c.335.729.036 1.594-.679 1.96l-11.456 5.88c-.219.112-.454.166-.684.166zm-30.268-83.766c-2.574 0-4.914 1.245-6.377 3.435-1.627 2.435-1.76 5.423-.355 7.994l37.614 68.835 8.879-4.557-32.698-71.204c-1.129-2.459-3.501-4.167-6.19-4.456-.294-.031-.585-.047-.873-.047z" fill="#3a312a"></path><path d="m156.84 233.6c0 3.069 2.496 5.565 5.555 5.555 0 0 16.92.092 17.349.092 4.92-.01 5.319-3.836 5.677-8.787l.655-12.071.01-.01-12.859.01v.072l-.225 9.575h-10.608c-3.068.01-5.564 2.495-5.554 5.564z" fill="#87796f"></path><path d="m179.747 240.747c-.433 0-17.36-.092-17.36-.092-.009 0-.018 0-.025 0-1.854 0-3.614-.729-4.943-2.053-1.34-1.335-2.078-3.111-2.078-5.001-.011-3.884 3.151-7.054 7.05-7.066h9.148l.189-8.11c.02-.814.685-1.536 1.499-1.537l12.859-.01h.001c.619 0 1.175.381 1.398.958.101.259.125.535.08.796l-.645 11.907c-.33 4.558-.738 10.195-7.173 10.208zm-17.357-3.092c.013 0 16.925.092 17.354.092 3.168-.007 3.768-1.672 4.182-7.396l.567-10.472-9.799.008-.191 8.183c-.02.814-.686 1.465-1.5 1.465h-10.608c-2.241.007-4.062 1.828-4.055 4.06v.005c0 1.086.425 2.108 1.196 2.877.763.76 1.77 1.178 2.839 1.178z" fill="#3a312a"></path><path d="m174 189.949c-.029 0-.056-.004-.086-.004l-.686 28.444 12.859-.01h.01l7.468-79.443c.307-3.233-1.115-6.383-3.734-8.306-6.005-4.399-14.485-.225-14.659 7.222l-.814 33.72z" fill="#eb6e7a"></path><path d="m173.227 219.889c-.404 0-.791-.163-1.073-.452s-.436-.68-.427-1.085l.687-28.444c.021-.814.686-1.464 1.5-1.464.034 0 .112.003.146.005.828 0 1.47.671 1.47 1.5 0 .213-.047.417-.131.601l-.635 26.337 9.967-.008 7.34-78.085c.255-2.688-.944-5.353-3.128-6.957-2.36-1.729-5.338-1.988-7.966-.695-2.628 1.294-4.237 3.815-4.306 6.743l-.814 33.721c-.021.829-.73 1.507-1.536 1.463-.828-.02-1.483-.708-1.464-1.536l.814-33.72c.096-4.065 2.331-7.566 5.98-9.363 3.648-1.797 7.786-1.437 11.066.967 3.031 2.227 4.694 5.927 4.34 9.658l-7.468 79.442c-.072.77-.719 1.359-1.493 1.359l-12.868.01h-.001z" fill="#3a312a"></path><path d="m204.239 92.858v39.05c0 3-2.43 5.42-5.42 5.42h-20.29c-2.99 0-5.42-2.42-5.42-5.42v-39.05c0-8.25 6.69-14.93 14.94-14.93h1.26c8.24 0 14.93 6.68 14.93 14.93z" fill="#eb6e7a"></path><path d="m198.818 138.828h-20.29c-3.815 0-6.92-3.105-6.92-6.92v-39.05c0-9.06 7.375-16.43 16.44-16.43h1.26c9.06 0 16.43 7.371 16.43 16.43v39.05c0 3.815-3.104 6.92-6.92 6.92zm-10.769-59.4c-7.411 0-13.44 6.025-13.44 13.43v39.05c0 2.162 1.759 3.92 3.92 3.92h20.29c2.161 0 3.92-1.758 3.92-3.92v-39.05c0-7.405-6.024-13.43-13.43-13.43z" fill="#3a312a"></path><path d="m183.272 94.617-9.175 14.257-27.847.353c-3.16.019-5.707 2.581-5.696 5.737.009 2.479 1.597 4.579 3.804 5.363.601.214 1.255.335 1.933.333l30.564-.37c1.716-.007 3.337-.785 4.417-2.119l10.881-16.364z" fill="#eb6e7a"></path><path d="m146.288 122.16c-.836 0-1.649-.141-2.432-.42-2.861-1.016-4.791-3.737-4.802-6.771-.014-3.97 3.211-7.218 7.188-7.242l27.03-.342 8.738-13.579c.449-.698 1.378-.897 2.073-.45.697.448.898 1.376.45 2.073l-9.175 14.257c-.273.423-.739.682-1.243.688l-27.847.353c-2.336.014-4.223 1.912-4.215 4.232.006 1.771 1.134 3.361 2.807 3.955.46.164.936.247 1.414.247h.013l30.55-.37c1.261-.005 2.43-.556 3.229-1.513l10.838-16.301c.46-.691 1.392-.877 2.079-.418.69.458.878 1.39.419 2.08l-10.88 16.364c-.026.039-.054.077-.083.113-1.369 1.691-3.401 2.666-5.576 2.675l-30.553.37c-.007-.001-.014-.001-.022-.001z" fill="#3a312a"></path><path d="m146.289 120.663c-.678 0-1.328-.121-1.933-.335-2.208-.784-3.789-2.889-3.798-5.362-.018-3.161 2.537-5.722 5.688-5.741l5.064-.067.128 11.444z" fill="#f1ddc2"></path><path d="m146.285 122.163c-.821 0-1.638-.142-2.429-.42-2.859-1.016-4.787-3.737-4.798-6.771-.023-3.97 3.197-7.223 7.18-7.247l5.053-.067h.02c.392 0 .768.153 1.048.426.285.278.447.659.452 1.057l.128 11.444c.009.828-.654 1.507-1.482 1.517l-5.15.061c-.007 0-.014-.001-.022 0zm.004-1.5h.01zm3.538-9.986-3.561.047c-2.339.014-4.222 1.913-4.208 4.232.006 1.776 1.132 3.365 2.8 3.957.465.164.944.248 1.422.248l3.642-.043z" fill="#3a312a"></path><path clip-rule="evenodd" d="m169.756 54.449c0 2.577-2.09 4.666-4.669 4.666s-4.669-2.089-4.669-4.666 2.09-4.666 4.669-4.666 4.669 2.089 4.669 4.666z" fill="#f3dec3" fill-rule="evenodd"></path><path d="m165.088 60.616c-3.401 0-6.169-2.766-6.169-6.167 0-3.4 2.768-6.166 6.169-6.166s6.168 2.766 6.168 6.166c0 3.401-2.767 6.167-6.168 6.167zm0-9.333c-1.747 0-3.169 1.42-3.169 3.166s1.422 3.167 3.169 3.167 3.168-1.42 3.168-3.167c0-1.745-1.421-3.166-3.168-3.166z" fill="#3a312a"></path><path clip-rule="evenodd" d="m210.505 54.449c0 2.577-2.09 4.666-4.669 4.666-2.578 0-4.669-2.089-4.669-4.666s2.09-4.666 4.669-4.666 4.669 2.089 4.669 4.666z" fill="#f3dec3" fill-rule="evenodd"></path><path d="m205.837 60.616c-3.401 0-6.169-2.766-6.169-6.167 0-3.4 2.768-6.166 6.169-6.166s6.169 2.766 6.169 6.166c0 3.401-2.768 6.167-6.169 6.167zm0-9.333c-1.747 0-3.169 1.42-3.169 3.166s1.422 3.167 3.169 3.167 3.169-1.42 3.169-3.167c0-1.745-1.422-3.166-3.169-3.166z" fill="#3a312a"></path><path d="m206.16 52.186c0 6.431-3.49 14.803-8.272 20.889-3.707 4.726-8.192 8.072-12.424 8.072-4.168 0-8.782-3.563-12.593-8.521-4.65-6.046-8.104-14.165-8.104-20.44 0-11.426 9.263-20.689 20.697-20.689 11.429 0 20.696 9.263 20.696 20.689z" fill="#f3dec3"></path><g fill="#3a312a"><path d="m185.464 82.646c-5.901 0-11.169-5.706-13.783-9.107-5.111-6.646-8.414-15.029-8.414-21.354 0-12.235 9.958-22.189 22.197-22.189s22.196 9.954 22.196 22.189c0 6.508-3.453 15.275-8.593 21.816-4.373 5.575-9.204 8.645-13.603 8.645zm0-49.649c-10.585 0-19.197 8.608-19.197 19.189 0 5.618 3.132 13.464 7.793 19.525 3.819 4.969 8.083 7.936 11.404 7.936 3.408 0 7.506-2.733 11.243-7.498 4.758-6.054 7.953-14.076 7.953-19.963 0-10.582-8.611-19.189-19.196-19.189z"></path><path d="m180.175 51.951c0 1.115-.904 2.019-2.02 2.019s-2.02-.904-2.02-2.019.904-2.019 2.02-2.019 2.02.904 2.02 2.019z"></path><path d="m194.789 51.951c0 1.115-.904 2.019-2.02 2.019s-2.02-.904-2.02-2.019.904-2.019 2.02-2.019 2.02.904 2.02 2.019z"></path></g><path d="m177.598 57.953c0 1.436-1.558 2.6-3.48 2.6s-3.48-1.164-3.48-2.6 1.558-2.6 3.48-2.6 3.48 1.164 3.48 2.6z" fill="#f59689"></path><path d="m200.286 57.953c0 1.436-1.558 2.6-3.48 2.6s-3.48-1.164-3.48-2.6 1.558-2.6 3.48-2.6c1.923 0 3.48 1.164 3.48 2.6z" fill="#f59689"></path><path d="m185.462 70.463c-3.252 0-5.698-1.526-7.073-4.413-.357-.748-.038-1.643.71-1.999.748-.357 1.644-.038 1.999.709.89 1.869 2.236 2.703 4.364 2.703 2.455 0 3.925-1.545 4.314-2.584.29-.776 1.152-1.17 1.931-.878.775.291 1.169 1.155.878 1.931-.817 2.182-3.396 4.531-7.123 4.531z" fill="#3a312a"></path><path d="m209.719 43.599c0 2.158-.281 4.25-.812 6.241-5.397-2.601-10.531-5.794-15.288-9.403-1.396-1.057-2.769-2.158-4.081-3.325-1.61-1.412-3.133-2.934-4.507-4.583-2.988-3.596-5.182-7.728-7.039-12.03 2.343-.759 4.844-1.167 7.442-1.167 6.946 0 13.213 2.917 17.64 7.592 4.122 4.347 6.645 10.215 6.645 16.675z" fill="#87796f"></path><path d="m208.907 51.34c-.223 0-.445-.05-.651-.149-5.355-2.581-10.585-5.797-15.543-9.56-1.591-1.205-2.956-2.317-4.172-3.399-1.745-1.53-3.316-3.129-4.662-4.743-2.72-3.273-5.027-7.212-7.263-12.396-.168-.388-.164-.828.011-1.213.174-.385.502-.678.904-.809 2.54-.823 5.199-1.24 7.904-1.24 7.154 0 13.806 2.863 18.729 8.061 4.549 4.798 7.055 11.087 7.055 17.706 0 2.253-.29 4.483-.862 6.628-.115.432-.417.79-.823.977-.2.092-.413.137-.627.137zm-28.841-29.87c1.9 4.149 3.864 7.388 6.118 10.101 1.245 1.493 2.706 2.979 4.343 4.414 1.164 1.037 2.47 2.1 3.997 3.257 4.274 3.243 8.753 6.065 13.336 8.405.238-1.327.358-2.682.358-4.047 0-5.848-2.213-11.403-6.232-15.643-4.351-4.594-10.229-7.124-16.551-7.124-1.824-.001-3.622.213-5.369.637z" fill="#3a312a"></path><path d="m203.075 26.924c-4.178 3.807-8.724 7.175-13.537 10.188-8.535 5.346-17.895 9.566-27.474 13.079-.592-2.097-.908-4.307-.908-6.592 0-10.807 7.069-19.965 16.837-23.1 2.343-.759 4.844-1.167 7.442-1.167 6.946 0 13.213 2.917 17.64 7.592z" fill="#87796f"></path><path d="m162.064 51.691c-.234 0-.469-.055-.683-.164-.371-.19-.648-.526-.761-.929-.641-2.267-.965-4.622-.965-7 0-11.238 7.186-21.095 17.88-24.528 2.536-.822 5.195-1.239 7.9-1.239 7.154 0 13.806 2.863 18.729 8.061.277.292.425.684.41 1.086-.015.403-.191.782-.488 1.054-4.057 3.695-8.683 7.178-13.752 10.351-7.873 4.931-16.951 9.254-27.754 13.216-.167.062-.342.092-.516.092zm23.372-30.859c-2.391 0-4.739.368-6.98 1.094-9.452 3.034-15.8 11.743-15.8 21.673 0 1.552.156 3.093.466 4.6 9.915-3.729 18.31-7.778 25.621-12.357 4.432-2.774 8.51-5.788 12.145-8.973-4.219-3.905-9.648-6.037-15.452-6.037z" fill="#3a312a"></path><path d="m121.13 107.34v58.22h-10.76v-47.89c0-5.71 4.62-10.33 10.33-10.33z" fill="#89c4db"></path><path d="m121.13 167.06h-10.76c-.828 0-1.5-.671-1.5-1.5v-47.89c0-6.523 5.307-11.83 11.83-11.83h.43c.828 0 1.5.671 1.5 1.5v58.22c0 .829-.672 1.5-1.5 1.5zm-9.26-3h7.76v-55.156c-4.366.53-7.76 4.259-7.76 8.766z" fill="#3a312a"></path><path d="m23.096 221.658h30.443v8.626h-30.443z" fill="#87796f"></path><path d="m53.539 231.783h-30.443c-.828 0-1.5-.671-1.5-1.5v-8.626c0-.829.672-1.5 1.5-1.5h30.443c.828 0 1.5.671 1.5 1.5v8.626c0 .829-.672 1.5-1.5 1.5zm-28.943-3h27.443v-5.626h-27.443z" fill="#3a312a"></path><path d="m47.538 26.763s3.408 12.659 13.222 13.246c0 0-13.1 4.525-13.321 14.202 0 0-2.579-13.572-12.925-14.059 0 .001 12.05-1.825 13.024-13.389z" fill="#d6df58"></path><path d="m47.438 55.711c-.713 0-1.335-.506-1.473-1.217-.023-.124-2.494-12.417-11.521-12.842-.771-.037-1.388-.651-1.428-1.421-.04-.771.511-1.445 1.274-1.561.441-.069 10.895-1.817 11.754-12.033.062-.725.635-1.301 1.359-1.367.729-.06 1.394.399 1.584 1.102.031.116 3.259 11.626 11.863 12.141.714.043 1.298.584 1.395 1.292.098.708-.318 1.388-.994 1.623-.121.042-12.118 4.31-12.313 12.819-.018.767-.611 1.396-1.375 1.459-.042.003-.084.005-.125.005zm-7.741-15.73c3.878 1.969 6.229 5.746 7.586 8.876 2.026-4.021 5.942-6.787 8.949-8.427-4.134-1.842-6.783-5.651-8.334-8.722-1.793 4.361-5.27 6.869-8.201 8.273z" fill="#3a312a"></path><path d="m25.839 43.744s2.411 8.954 9.352 9.369c0 0-9.266 3.201-9.422 10.045 0 0-1.824-9.6-9.142-9.944 0 0 8.523-1.291 9.212-9.47z" fill="#d6df58"></path><path d="m25.769 64.659c-.714 0-1.337-.507-1.473-1.22-.016-.082-1.704-8.442-7.739-8.726-.771-.037-1.388-.651-1.428-1.421-.04-.771.511-1.445 1.273-1.561.296-.047 7.363-1.243 7.942-8.114.062-.726.636-1.303 1.361-1.368.717-.062 1.392.399 1.582 1.102.022.079 2.227 7.92 7.993 8.265.714.043 1.299.584 1.396 1.293s-.32 1.388-.996 1.622c-.081.028-8.282 2.952-8.412 8.662-.017.767-.611 1.397-1.376 1.461-.04.003-.082.005-.123.005zm-4.52-11.528c2.107 1.333 3.523 3.394 4.447 5.28 1.376-2.232 3.516-3.871 5.365-4.972-2.287-1.27-3.885-3.35-4.941-5.224-1.174 2.286-3.016 3.875-4.871 4.916z" fill="#3a312a"></path><path d="m25.839 17.086s2.411 8.954 9.352 9.37c0 0-9.266 3.201-9.422 10.045 0 0-1.824-9.6-9.142-9.944 0 0 8.523-1.292 9.212-9.471z" fill="#d6df58"></path><path d="m25.769 38.001c-.714 0-1.337-.507-1.473-1.22-.016-.082-1.704-8.442-7.739-8.726-.771-.037-1.388-.651-1.428-1.421-.04-.771.511-1.445 1.273-1.561.296-.047 7.363-1.243 7.942-8.114.062-.726.636-1.303 1.361-1.368.717-.061 1.392.4 1.582 1.101.022.079 2.227 7.92 7.993 8.264.714.043 1.299.584 1.396 1.293s-.32 1.388-.996 1.622c-.081.028-8.282 2.953-8.412 8.662-.017.767-.611 1.397-1.376 1.461-.04.006-.082.007-.123.007zm-4.52-11.527c2.107 1.333 3.523 3.394 4.447 5.28 1.376-2.232 3.515-3.872 5.365-4.973-2.287-1.269-3.885-3.35-4.941-5.224-1.174 2.287-3.016 3.876-4.871 4.917z" fill="#3a312a"></path><path d="m35.96 182.404-4.871 28.885-9.451-.948c-2.568-.262-4.858 1.609-5.115 4.171-.257 2.563 1.614 4.853 4.182 5.115 0 0 14.121 1.504 14.476 1.541 4.107.419 4.766-2.75 5.488-6.852l13.674-48.766c.705 0 16.969-.001 27.786-.001 4.737 0 8.616-3.756 8.774-8.491.176-5.263-4.285-9.499-9.531-9.048-14.953 1.289-34.781 3.174-34.923 3.195-1.342.193-3.041.824-4.517 2.424-1.395 1.511-1.75 3.456-1.819 4.135l-2.358 13.983z" fill="#f4e0c4"></path><path d="m35.908 222.708c-.279 0-.571-.015-.879-.046-.359-.038-14.482-1.542-14.482-1.542-3.377-.345-5.854-3.376-5.516-6.756.164-1.639.957-3.115 2.233-4.157 1.278-1.043 2.882-1.528 4.525-1.357l8.053.808 4.638-27.502c.138-.817.915-1.37 1.729-1.229.817.138 1.368.912 1.23 1.729l-4.871 28.885c-.132.779-.859 1.315-1.629 1.243l-9.451-.948c-.845-.087-1.67.162-2.326.697-.655.534-1.062 1.291-1.146 2.131-.174 1.737 1.102 3.295 2.843 3.473.007 0 14.124 1.505 14.478 1.542 2.461.246 3.038-.972 3.856-5.62.009-.049.019-.098.033-.145l13.674-48.766c.182-.648.771-1.095 1.444-1.095l27.786-.002c3.947 0 7.143-3.093 7.275-7.041.069-2.081-.757-4.096-2.267-5.53-1.51-1.432-3.562-2.15-5.637-1.973-14.525 1.253-34.271 3.125-34.881 3.19-.916.132-2.324.584-3.585 1.951-1.2 1.3-1.409 3.07-1.43 3.268l-2.37 14.083c-.139.817-.921 1.363-1.729 1.229-.817-.138-1.368-.912-1.23-1.729l2.357-13.983c.057-.588.42-2.979 2.197-4.903 1.857-2.014 3.965-2.684 5.404-2.891.266-.039 20.375-1.942 35.008-3.205 2.923-.251 5.827.763 7.96 2.787 2.132 2.023 3.298 4.869 3.199 7.806-.188 5.574-4.7 9.94-10.273 9.94l-26.648.002-13.347 47.599c-.638 3.63-1.448 8.057-6.225 8.057z" fill="#3a312a"></path><path d="m35.96 182.404-4.181 24.794 10.272 2.198 12.291-43.842h27.785c4.742 0 8.621-3.759 8.779-8.494.173-5.267-4.284-9.499-9.529-9.049-14.954 1.29-34.785 3.174-34.928 3.196-1.343.195-3.039.826-4.517 2.424-1.396 1.508-1.748 3.459-1.816 4.135l-2.358 13.983z" fill="#87796f"></path><path d="m42.052 210.896c-.104 0-.209-.011-.314-.034l-10.272-2.198c-.785-.168-1.299-.924-1.166-1.716l4.181-24.794c.138-.817.915-1.37 1.729-1.229.817.138 1.368.912 1.23 1.729l-3.942 23.378 7.49 1.603 11.91-42.484c.182-.647.771-1.095 1.444-1.095h27.785c3.95 0 7.148-3.094 7.279-7.044.068-2.083-.759-4.1-2.27-5.533-1.508-1.43-3.559-2.149-5.633-1.971-14.923 1.287-34.325 3.13-34.88 3.191-.92.134-2.329.586-3.591 1.952-1.198 1.294-1.405 3.067-1.426 3.266-.003.034-.008.067-.013.101l-2.358 13.983c-.139.817-.917 1.367-1.729 1.229-.817-.138-1.368-.912-1.23-1.729l2.351-13.936c.082-.752.47-3.079 2.203-4.951 1.857-2.009 3.963-2.68 5.401-2.889.292-.046 20.767-1.977 35.015-3.206 2.926-.247 5.825.764 7.954 2.784 2.132 2.023 3.3 4.868 3.203 7.809-.185 5.577-4.699 9.945-10.277 9.945h-26.647l-11.984 42.743c-.184.659-.784 1.095-1.443 1.096z" fill="#3a312a"></path><path d="m94.78 106.057c-8.608 0-15.587 6.978-15.587 15.587v38.257c0 3.125 2.533 5.658 5.658 5.658h19.857c3.125 0 5.658-2.533 5.658-5.658v-38.257c0-8.609-6.978-15.587-15.586-15.587z" fill="#d6df58"></path><path d="m104.708 167.06h-19.857c-3.947 0-7.158-3.211-7.158-7.158v-38.258c0-9.421 7.665-17.087 17.087-17.087s17.087 7.665 17.087 17.087v38.257c-.001 3.947-3.212 7.159-7.159 7.159zm-9.929-59.503c-7.768 0-14.087 6.319-14.087 14.087v38.258c0 2.293 1.865 4.158 4.158 4.158h19.857c2.293 0 4.158-1.866 4.158-4.159v-38.257c.001-7.767-6.318-14.087-14.086-14.087z" fill="#3a312a"></path><path d="m88.839 118.654-9.189 14.279-27.891.353c-3.165.019-5.716 2.585-5.705 5.746.009 2.483 1.6 4.586 3.81 5.372.602.214 1.257.335 1.936.334l30.613-.371c1.718-.007 3.342-.787 4.424-2.122l10.898-16.39z" fill="#d6df58"></path><path d="m51.797 146.237c-.836 0-1.651-.142-2.436-.42-2.864-1.018-4.797-3.742-4.808-6.78-.014-3.975 3.215-7.227 7.196-7.251l27.074-.343 8.753-13.601c.449-.698 1.379-.897 2.073-.45.697.448.898 1.377.45 2.073l-9.189 14.279c-.272.423-.739.682-1.243.689l-27.891.354c-2.341.014-4.231 1.917-4.224 4.241.006 1.775 1.137 3.368 2.813 3.963.464.165.896.257 1.431.247l30.598-.371c1.263-.005 2.434-.557 3.235-1.516l10.855-16.327c.459-.691 1.392-.876 2.079-.418.69.458.878 1.39.419 2.08l-10.897 16.39c-.026.039-.054.077-.083.113-1.371 1.693-3.406 2.669-5.583 2.679l-30.601.371c-.006-.002-.013-.002-.021-.002z" fill="#3a312a"></path><path d="m51.798 144.74c-.679 0-1.33-.122-1.936-.336-2.211-.785-3.795-2.894-3.804-5.37-.018-3.166 2.541-5.731 5.697-5.75l5.072-.067.128 11.462z" fill="#f1ddc2"></path><path d="m51.794 146.24c-.823 0-1.642-.142-2.433-.421-2.863-1.016-4.793-3.74-4.804-6.779-.023-3.975 3.201-7.232 7.189-7.256l5.061-.067h.02c.392 0 .768.153 1.048.426.285.278.447.659.452 1.057l.128 11.462c.009.828-.654 1.507-1.482 1.517l-5.157.061c-.008 0-.015 0-.022 0zm.004-1.5h.01zm3.546-10.004-3.569.047c-2.344.014-4.23 1.917-4.217 4.242.006 1.78 1.134 3.372 2.806 3.966.465.165.945.249 1.426.249l3.649-.043z" fill="#3a312a"></path><path d="m121.133 165.561v32.99h-65.422v-32.554c0-.142 0-.294.02-.436z" fill="#89c4db"></path><path d="m121.133 200.051h-65.422c-.828 0-1.5-.671-1.5-1.5v-32.554c0-.212.005-.439.036-.65.106-.738.738-1.286 1.484-1.286h65.401c.828 0 1.5.671 1.5 1.5v32.99c.001.829-.671 1.5-1.499 1.5zm-63.922-3h62.422v-29.99h-62.422z" fill="#3a312a"></path><path d="m130.167 146.324h-67.407c-8.459 0-15.317 6.857-15.317 15.317v69.922c0 2.283 1.851 4.133 4.133 4.133 2.283 0 4.133-1.851 4.133-4.133v-69.921c0-3.894 3.157-7.05 7.05-7.05h67.229c2.159 0 4.087-1.578 4.292-3.727.236-2.467-1.696-4.541-4.113-4.541z" fill="#f7e3c7"></path><path d="m51.577 237.195c-3.106 0-5.634-2.527-5.634-5.633v-69.922c0-9.272 7.544-16.816 16.817-16.816h67.406c1.584 0 3.103.672 4.17 1.845 1.064 1.171 1.589 2.752 1.438 4.337-.272 2.852-2.813 5.085-5.785 5.085h-67.228c-3.061 0-5.551 2.49-5.551 5.55v69.921c0 3.107-2.527 5.633-5.633 5.633zm11.184-89.371c-7.619 0-13.817 6.198-13.817 13.816v69.922c0 1.452 1.182 2.633 2.634 2.633s2.633-1.181 2.633-2.633v-69.921c0-4.715 3.836-8.55 8.551-8.55h67.229c1.442 0 2.672-1.041 2.799-2.37.072-.756-.166-1.478-.671-2.034-.499-.548-1.21-.863-1.95-.863z" fill="#3a312a"></path><path d="m110.75 150.456c0 3.344-2.711 6.055-6.055 6.055h-30.873c-3.344 0-6.055-2.711-6.055-6.055 0-3.344 2.711-6.055 6.055-6.055h30.873c3.344 0 6.055 2.711 6.055 6.055z" fill="#87796f"></path><path d="m104.694 158.012h-30.873c-4.166 0-7.555-3.389-7.555-7.555s3.389-7.555 7.555-7.555h30.873c4.166 0 7.556 3.389 7.556 7.555s-3.39 7.555-7.556 7.555zm-30.873-12.111c-2.512 0-4.555 2.043-4.555 4.555s2.043 4.555 4.555 4.555h30.873c2.512 0 4.556-2.043 4.556-4.555s-2.044-4.555-4.556-4.555z" fill="#3a312a"></path><path d="m81.831 198.551h13.192v29.702h-13.192z" fill="#d4da55"></path><path d="m95.023 229.753h-13.192c-.828 0-1.5-.671-1.5-1.5v-29.702c0-.829.672-1.5 1.5-1.5h13.192c.828 0 1.5.671 1.5 1.5v29.702c0 .829-.671 1.5-1.5 1.5zm-11.692-3h10.192v-26.702h-10.192z" fill="#3a312a"></path><path d="m81.831 198.551h13.192v29.702h-13.192z" fill="#89c4db"></path><path d="m95.023 229.753h-13.192c-.828 0-1.5-.671-1.5-1.5v-29.702c0-.829.672-1.5 1.5-1.5h13.192c.828 0 1.5.671 1.5 1.5v29.702c0 .829-.671 1.5-1.5 1.5zm-11.692-3h10.192v-26.702h-10.192z" fill="#3a312a"></path><path d="m95.023 209.48v7.103h17.88c1.962 0 3.552-1.59 3.552-3.552 0-1.962-1.59-3.552-3.552-3.552h-17.88z" fill="#f7e3c7"></path><path d="m112.903 218.083h-17.88c-.828 0-1.5-.671-1.5-1.5v-7.103c0-.829.672-1.5 1.5-1.5h17.88c2.785 0 5.052 2.266 5.052 5.052 0 2.785-2.267 5.051-5.052 5.051zm-16.38-3h16.38c1.131 0 2.052-.92 2.052-2.051s-.921-2.052-2.052-2.052h-16.38z" fill="#3a312a"></path><path d="m107.702 239.416v-.148c0-6.083-4.931-11.015-11.015-11.015h-16.531c-6.083 0-11.015 4.932-11.015 11.015.057.057.09.09.148.148z" fill="#87796f"></path><path d="m107.702 240.916h-38.413c-.396 0-.775-.156-1.056-.435l-.157-.156c-.278-.281-.435-.661-.435-1.056 0-6.901 5.614-12.515 12.515-12.515h16.531c6.9 0 12.515 5.614 12.515 12.515v.147c0 .829-.672 1.5-1.5 1.5zm-36.965-3h35.369c-.659-4.608-4.632-8.163-9.419-8.163h-16.531c-4.787 0-8.76 3.555-9.419 8.163z" fill="#3a312a"></path><path d="m173.109 123.918h31.13v6h-31.13z" fill="#87796f"></path><path d="m204.238 131.418h-31.13c-.828 0-1.5-.671-1.5-1.5v-6c0-.829.672-1.5 1.5-1.5h31.13c.828 0 1.5.671 1.5 1.5v6c0 .829-.672 1.5-1.5 1.5zm-29.63-3h28.13v-3h-28.13z" fill="#3a312a"></path><path d="m183.237 123.919h21v23h-21z" fill="#87796f"></path><path d="m204.237 148.419h-21c-.828 0-1.5-.671-1.5-1.5v-23c0-.829.672-1.5 1.5-1.5h21c.828 0 1.5.671 1.5 1.5v23c0 .828-.672 1.5-1.5 1.5zm-19.5-3h18v-20h-18z" fill="#3a312a"></path><path d="m190.236 143.169c-.828 0-1.5-.671-1.5-1.5v-12.5c0-.829.672-1.5 1.5-1.5s1.5.671 1.5 1.5v12.5c0 .828-.672 1.5-1.5 1.5z" fill="#3a312a"></path><path d="m197.236 143.169c-.828 0-1.5-.671-1.5-1.5v-12.5c0-.829.672-1.5 1.5-1.5s1.5.671 1.5 1.5v12.5c0 .828-.672 1.5-1.5 1.5z" fill="#3a312a"></path><path d="m68.214 88.073c1.292 13.476 10.087 23.657 19.644 22.74s16.258-12.585 14.966-26.061-10.087-23.657-19.644-22.74-16.258 12.585-14.966 26.061z" fill="#f5e1c5"></path><path d="m86.644 112.371c-4.647 0-9.162-2.29-12.842-6.55-3.912-4.528-6.427-10.78-7.081-17.604-1.369-14.278 5.95-26.703 16.315-27.697 5.121-.495 10.163 1.812 14.2 6.485 3.912 4.528 6.427 10.781 7.08 17.605 1.369 14.277-5.95 26.702-16.315 27.697-.453.043-.906.064-1.357.064zm-16.937-24.441c.596 6.21 2.855 11.868 6.364 15.93 3.384 3.916 7.525 5.856 11.643 5.46 8.719-.836 14.827-11.793 13.616-24.424-.595-6.211-2.855-11.868-6.363-15.93-3.384-3.916-7.519-5.852-11.644-5.459-8.719.835-14.827 11.792-13.616 24.423z" fill="#3a312a"></path><path d="m80 90.946c.14 1.457 1.833 2.487 3.782 2.3s3.416-1.52 3.276-2.977-1.833-2.487-3.782-2.299c-1.949.186-3.416 1.519-3.276 2.976z" fill="#f59689"></path><path d="m73.568 104.599c-.71 0-1.341-.507-1.474-1.23-.149-.815.391-1.597 1.205-1.746 1.794-.329 2.928-1.308 3.568-3.083.281-.779 1.137-1.184 1.921-.901.778.281 1.183 1.141.901 1.92-1.012 2.802-2.979 4.489-5.85 5.015-.09.017-.181.025-.271.025z" fill="#3a312a"></path><path d="m79.215 88.12c-2.697 0-4.713-1.593-5.49-3.188-.363-.745-.055-1.643.689-2.006.746-.362 1.643-.054 2.006.69.337.688 1.478 1.65 3.18 1.485 1.493-.143 2.382-.817 2.88-2.186.283-.779 1.147-1.178 1.922-.896.778.283 1.18 1.144.896 1.923-.895 2.459-2.766 3.893-5.411 4.146-.229.021-.452.032-.672.032z" fill="#3a312a"></path><path d="m115.567 81.078c3.458 22.043-13.465 28.166-24.941 29.462-.723.078-1.436.115-2.149.095 5.768-4.144 9.488-13.449 8.377-23.29-.3-2.699-.93-5.235-1.804-7.571-9.509-.887-18.815-3.016-26.949-7.795 2.709-8.415 8.932-13.638 16.422-15.421 19.243-4.579 28.719 9.694 31.044 24.52z" fill="#f3dec3"></path><path d="m88.874 112.14c-.147 0-.294-.002-.439-.006-.644-.019-1.203-.445-1.392-1.061-.188-.615.037-1.282.56-1.657 5.573-4.004 8.765-13.011 7.762-21.903-.239-2.162-.712-4.29-1.406-6.339-10.728-1.099-19.442-3.688-26.616-7.901-.605-.356-.884-1.084-.668-1.753 2.715-8.435 9.095-14.42 17.502-16.421 7.781-1.852 14.556-.895 20.133 2.845 6.593 4.422 11.118 12.556 12.74 22.902 1.301 8.29-.074 15.163-4.087 20.427-5.991 7.859-16.46 10.114-22.167 10.758-.68.073-1.311.109-1.922.109zm-18.945-40.847c6.802 3.75 15.081 6.038 25.262 6.987.572.054 1.063.43 1.266.968.953 2.548 1.589 5.217 1.89 7.932.926 8.209-1.302 16.313-5.683 21.565 5.403-.886 13.276-3.209 17.913-9.291 3.498-4.588 4.679-10.692 3.51-18.143-1.471-9.373-5.644-16.982-11.448-20.875-4.854-3.256-10.833-4.07-17.767-2.417-7.087 1.685-12.353 6.378-14.943 13.274z" fill="#3a312a"></path><path d="m103.63 167.06h16v29.99h-16z" fill="#6ca6be"></path><path d="m119.633 144.823v-35.916c-4.369.527-7.767 4.257-7.767 8.767v3.97 23.18h7.767z" fill="#6ca6be"></path></g></svg>